<mxfile host="app.diagrams.net" modified="2024-03-24T12:52:47.996Z" agent="Mozilla/5.0 (Windows NT 10.0; Win64; x64) AppleWebKit/537.36 (KHTML, like Gecko) Chrome/121.0.0.0 Safari/537.36 OPR/107.0.0.0" etag="DxUNULKQ8F9pMDTTbJTr" version="24.1.0" type="device">
  <diagram id="1rf67pfMRnC-_Mq66D7q" name="Página-1">
    <mxGraphModel dx="510" dy="537" grid="1" gridSize="10" guides="1" tooltips="1" connect="1" arrows="1" fold="1" page="1" pageScale="1" pageWidth="1654" pageHeight="2336" math="0" shadow="0">
      <root>
        <mxCell id="0" />
        <mxCell id="1" parent="0" />
        <mxCell id="TMbOq4nQ9oU4izlfPrIb-1" value="&lt;font face=&quot;Helvetica&quot;&gt;&lt;u&gt;userId&lt;/u&gt;&lt;/font&gt;" style="ellipse;whiteSpace=wrap;html=1;sketch=1;hachureGap=4;pointerEvents=0;fontFamily=Architects Daughter;fontSource=https%3A%2F%2Ffonts.googleapis.com%2Fcss%3Ffamily%3DArchitects%2BDaughter;fontSize=20;" parent="1" vertex="1">
          <mxGeometry x="470" y="710" width="160" height="100" as="geometry" />
        </mxCell>
        <mxCell id="TMbOq4nQ9oU4izlfPrIb-2" value="email" style="ellipse;whiteSpace=wrap;html=1;sketch=1;hachureGap=4;pointerEvents=0;fontFamily=Helvetica;fontSize=20;" parent="1" vertex="1">
          <mxGeometry x="260" y="690" width="160" height="100" as="geometry" />
        </mxCell>
        <mxCell id="JSX4e2sykX_i9BUhia8Z-3" value="&lt;font&gt;&lt;font style=&quot;font-size: 28px&quot;&gt;Templates&lt;/font&gt;&lt;br&gt;&lt;/font&gt;" style="rounded=1;arcSize=10;whiteSpace=wrap;html=1;align=center;" parent="1" vertex="1">
          <mxGeometry x="1083" y="894.8979591836735" width="327" height="163.26530612244898" as="geometry" />
        </mxCell>
        <mxCell id="JSX4e2sykX_i9BUhia8Z-6" value="&lt;font style=&quot;font-size: 18px&quot;&gt;Picks&lt;/font&gt;" style="shape=rhombus;perimeter=rhombusPerimeter;whiteSpace=wrap;html=1;align=center;" parent="1" vertex="1">
          <mxGeometry x="756" y="915.3061224489795" width="218" height="122.44897959183673" as="geometry" />
        </mxCell>
        <mxCell id="JSX4e2sykX_i9BUhia8Z-8" value="&lt;font style=&quot;font-size: 18px&quot;&gt;Uses&lt;/font&gt;" style="shape=rhombus;perimeter=rhombusPerimeter;whiteSpace=wrap;html=1;align=center;" parent="1" vertex="1">
          <mxGeometry x="1137.5" y="1221.4285714285716" width="218" height="122.44897959183673" as="geometry" />
        </mxCell>
        <mxCell id="JSX4e2sykX_i9BUhia8Z-9" value="" style="endArrow=none;html=1;rounded=0;edgeStyle=orthogonalEdgeStyle;exitX=0.5;exitY=0;exitDx=0;exitDy=0;" parent="1" source="JSX4e2sykX_i9BUhia8Z-5" target="JSX4e2sykX_i9BUhia8Z-2" edge="1">
          <mxGeometry x="320" y="650" as="geometry">
            <mxPoint x="465.33333333333337" y="1303.061224489796" as="sourcePoint" />
            <mxPoint x="756" y="1303.061224489796" as="targetPoint" />
            <Array as="points" />
          </mxGeometry>
        </mxCell>
        <mxCell id="JSX4e2sykX_i9BUhia8Z-10" value="" style="endArrow=none;html=1;rounded=0;edgeStyle=orthogonalEdgeStyle;entryX=0;entryY=0.5;entryDx=0;entryDy=0;" parent="1" target="JSX4e2sykX_i9BUhia8Z-4" edge="1">
          <mxGeometry x="320" y="650" as="geometry">
            <mxPoint x="592.5" y="1567.7755102040817" as="sourcePoint" />
            <mxPoint x="883.1666666666666" y="1567.7755102040817" as="targetPoint" />
          </mxGeometry>
        </mxCell>
        <mxCell id="JSX4e2sykX_i9BUhia8Z-11" value="" style="endArrow=none;html=1;rounded=0;edgeStyle=orthogonalEdgeStyle;entryX=0.5;entryY=0;entryDx=0;entryDy=0;exitX=0.5;exitY=1;exitDx=0;exitDy=0;" parent="1" source="JSX4e2sykX_i9BUhia8Z-8" target="JSX4e2sykX_i9BUhia8Z-4" edge="1">
          <mxGeometry x="320" y="650" as="geometry">
            <mxPoint x="974" y="1405.1020408163265" as="sourcePoint" />
            <mxPoint x="1264.6666666666665" y="1405.1020408163265" as="targetPoint" />
          </mxGeometry>
        </mxCell>
        <mxCell id="JSX4e2sykX_i9BUhia8Z-15" value="" style="endArrow=none;html=1;rounded=0;edgeStyle=orthogonalEdgeStyle;" parent="1" edge="1">
          <mxGeometry x="320" y="650" as="geometry">
            <mxPoint x="647" y="976.1224489795918" as="sourcePoint" />
            <mxPoint x="756" y="976.530612244898" as="targetPoint" />
            <Array as="points">
              <mxPoint x="647" y="976.1224489795918" />
              <mxPoint x="974" y="976.1224489795918" />
            </Array>
          </mxGeometry>
        </mxCell>
        <mxCell id="JSX4e2sykX_i9BUhia8Z-20" value="n" style="text;strokeColor=none;fillColor=none;spacingLeft=4;spacingRight=4;overflow=hidden;rotatable=0;points=[[0,0.5],[1,0.5]];portConstraint=eastwest;fontSize=18;" parent="1" vertex="1">
          <mxGeometry x="730" y="945.9161224489796" width="72.66666666666667" height="61.224489795918366" as="geometry" />
        </mxCell>
        <mxCell id="JSX4e2sykX_i9BUhia8Z-22" value="1 " style="text;strokeColor=none;fillColor=none;spacingLeft=4;spacingRight=4;overflow=hidden;rotatable=0;points=[[0,0.5],[1,0.5]];portConstraint=eastwest;fontSize=18;" parent="1" vertex="1">
          <mxGeometry x="756" y="1190.0040816326532" width="72.66666666666667" height="61.224489795918366" as="geometry" />
        </mxCell>
        <mxCell id="JSX4e2sykX_i9BUhia8Z-23" value="1 " style="text;strokeColor=none;fillColor=none;spacingLeft=4;spacingRight=4;overflow=hidden;rotatable=0;points=[[0,0.5],[1,0.5]];portConstraint=eastwest;fontSize=18;" parent="1" vertex="1">
          <mxGeometry x="500" y="1479.9983673469387" width="72.66666666666667" height="61.224489795918366" as="geometry" />
        </mxCell>
        <mxCell id="JSX4e2sykX_i9BUhia8Z-24" value="0..n" style="text;strokeColor=none;fillColor=none;spacingLeft=4;spacingRight=4;overflow=hidden;rotatable=0;points=[[0,0.5],[1,0.5]];portConstraint=eastwest;fontSize=18;" parent="1" vertex="1">
          <mxGeometry x="592.5033333333333" y="1568.3673469387754" width="72.66666666666667" height="61.224489795918366" as="geometry" />
        </mxCell>
        <mxCell id="JSX4e2sykX_i9BUhia8Z-27" value="0..n" style="text;strokeColor=none;fillColor=none;spacingLeft=4;spacingRight=4;overflow=hidden;rotatable=0;points=[[0,0.5],[1,0.5]];portConstraint=eastwest;fontSize=18;" parent="1" vertex="1">
          <mxGeometry x="1199.9966666666667" y="1343.8757142857144" width="72.66666666666667" height="61.224489795918366" as="geometry" />
        </mxCell>
        <mxCell id="JSX4e2sykX_i9BUhia8Z-31" value="&lt;font style=&quot;font-size: 22px&quot; face=&quot;Comic Sans MS&quot;&gt;&lt;i style=&quot;font-size: 42px&quot;&gt;&lt;b&gt;MEMIGO - Design&lt;br&gt;Roberto Martinez&lt;/b&gt;&lt;/i&gt;&lt;/font&gt;" style="shape=ext;margin=3;double=1;whiteSpace=wrap;html=1;align=center;fillColor=#fff2cc;strokeColor=#d6b656;" parent="1" vertex="1">
          <mxGeometry x="320" y="420" width="1090" height="163.26530612244898" as="geometry" />
        </mxCell>
        <mxCell id="JSX4e2sykX_i9BUhia8Z-33" value="" style="endArrow=none;html=1;rounded=0;edgeStyle=orthogonalEdgeStyle;exitX=1;exitY=0.5;exitDx=0;exitDy=0;entryX=0;entryY=0.5;entryDx=0;entryDy=0;" parent="1" source="JSX4e2sykX_i9BUhia8Z-6" target="JSX4e2sykX_i9BUhia8Z-3" edge="1">
          <mxGeometry x="320" y="650" as="geometry">
            <mxPoint x="1264" y="1206.530612244898" as="sourcePoint" />
            <mxPoint x="990" y="976.5238095238094" as="targetPoint" />
          </mxGeometry>
        </mxCell>
        <mxCell id="JSX4e2sykX_i9BUhia8Z-34" value="0..1" style="text;strokeColor=none;fillColor=none;spacingLeft=4;spacingRight=4;overflow=hidden;rotatable=0;points=[[0,0.5],[1,0.5]];portConstraint=eastwest;fontSize=18;" parent="1" vertex="1">
          <mxGeometry x="974" y="945.9161224489796" width="72.66666666666667" height="61.224489795918366" as="geometry" />
        </mxCell>
        <mxCell id="JSX4e2sykX_i9BUhia8Z-36" value="0..1" style="text;strokeColor=none;fillColor=none;spacingLeft=4;spacingRight=4;overflow=hidden;rotatable=0;points=[[0,0.5],[1,0.5]];portConstraint=eastwest;fontSize=18;" parent="1" vertex="1">
          <mxGeometry x="1200" y="1191.43" width="40" height="30" as="geometry" />
        </mxCell>
        <mxCell id="JSX4e2sykX_i9BUhia8Z-37" value="" style="endArrow=none;html=1;rounded=0;fontSize=18;edgeStyle=orthogonalEdgeStyle;exitX=0.5;exitY=0;exitDx=0;exitDy=0;" parent="1" source="JSX4e2sykX_i9BUhia8Z-8" edge="1">
          <mxGeometry x="320" y="650" as="geometry">
            <mxPoint x="1270" y="1200" as="sourcePoint" />
            <mxPoint x="1247" y="1058" as="targetPoint" />
            <Array as="points">
              <mxPoint x="1247" y="1140" />
              <mxPoint x="1247" y="1140" />
              <mxPoint x="1247" y="1058" />
            </Array>
          </mxGeometry>
        </mxCell>
        <mxCell id="TMbOq4nQ9oU4izlfPrIb-5" value="password" style="ellipse;whiteSpace=wrap;html=1;sketch=1;hachureGap=4;pointerEvents=0;fontFamily=Helvetica;fontSize=20;" parent="1" vertex="1">
          <mxGeometry x="90" y="800" width="160" height="100" as="geometry" />
        </mxCell>
        <mxCell id="TMbOq4nQ9oU4izlfPrIb-6" value="userpfp" style="ellipse;whiteSpace=wrap;html=1;sketch=1;hachureGap=4;pointerEvents=0;fontFamily=Helvetica;fontSize=20;" parent="1" vertex="1">
          <mxGeometry x="90" y="958.16" width="160" height="100" as="geometry" />
        </mxCell>
        <mxCell id="TMbOq4nQ9oU4izlfPrIb-7" value="&lt;font face=&quot;Helvetica&quot;&gt;username&lt;/font&gt;" style="ellipse;whiteSpace=wrap;html=1;sketch=1;hachureGap=4;pointerEvents=0;fontFamily=Architects Daughter;fontSource=https%3A%2F%2Ffonts.googleapis.com%2Fcss%3Ffamily%3DArchitects%2BDaughter;fontSize=20;" parent="1" vertex="1">
          <mxGeometry x="140" y="1130" width="160" height="100" as="geometry" />
        </mxCell>
        <mxCell id="TMbOq4nQ9oU4izlfPrIb-8" value="&lt;u&gt;templateId&lt;/u&gt;" style="ellipse;whiteSpace=wrap;html=1;sketch=1;hachureGap=4;pointerEvents=0;fontFamily=Helvetica;fontSize=20;" parent="1" vertex="1">
          <mxGeometry x="1030" y="720" width="160" height="100" as="geometry" />
        </mxCell>
        <mxCell id="TMbOq4nQ9oU4izlfPrIb-9" value="template" style="ellipse;whiteSpace=wrap;html=1;sketch=1;hachureGap=4;pointerEvents=0;fontFamily=Helvetica;fontSize=20;" parent="1" vertex="1">
          <mxGeometry x="1292.66" y="720" width="160" height="100" as="geometry" />
        </mxCell>
        <mxCell id="TMbOq4nQ9oU4izlfPrIb-11" value="&lt;font face=&quot;Helvetica&quot;&gt;user&lt;/font&gt;" style="ellipse;whiteSpace=wrap;html=1;sketch=1;hachureGap=4;pointerEvents=0;fontFamily=Architects Daughter;fontSource=https%3A%2F%2Ffonts.googleapis.com%2Fcss%3Ffamily%3DArchitects%2BDaughter;fontSize=20;" parent="1" vertex="1">
          <mxGeometry x="1230" y="1790" width="160" height="100" as="geometry" />
        </mxCell>
        <mxCell id="TMbOq4nQ9oU4izlfPrIb-13" value="&lt;font face=&quot;Helvetica&quot;&gt;&lt;u&gt;memeId&lt;/u&gt;&lt;/font&gt;" style="ellipse;whiteSpace=wrap;html=1;sketch=1;hachureGap=4;pointerEvents=0;fontFamily=Architects Daughter;fontSource=https%3A%2F%2Ffonts.googleapis.com%2Fcss%3Ffamily%3DArchitects%2BDaughter;fontSize=20;" parent="1" vertex="1">
          <mxGeometry x="950" y="1710" width="160" height="100" as="geometry" />
        </mxCell>
        <mxCell id="bUYXVA8Obc2C0IiQNMBb-2" value="" style="endArrow=none;html=1;edgeStyle=orthogonalEdgeStyle;curved=1;exitX=0.595;exitY=0.99;exitDx=0;exitDy=0;exitPerimeter=0;entryX=0.305;entryY=-0.002;entryDx=0;entryDy=0;entryPerimeter=0;" parent="1" source="TMbOq4nQ9oU4izlfPrIb-2" target="JSX4e2sykX_i9BUhia8Z-2" edge="1">
          <mxGeometry relative="1" as="geometry">
            <mxPoint x="370" y="840" as="sourcePoint" />
            <mxPoint x="530" y="840" as="targetPoint" />
          </mxGeometry>
        </mxCell>
        <mxCell id="bUYXVA8Obc2C0IiQNMBb-3" value="" style="endArrow=none;html=1;edgeStyle=orthogonalEdgeStyle;curved=1;" parent="1" source="TMbOq4nQ9oU4izlfPrIb-1" target="JSX4e2sykX_i9BUhia8Z-2" edge="1">
          <mxGeometry relative="1" as="geometry">
            <mxPoint x="365.20000000000005" y="799" as="sourcePoint" />
            <mxPoint x="503.5" y="904.8979591836735" as="targetPoint" />
          </mxGeometry>
        </mxCell>
        <mxCell id="bUYXVA8Obc2C0IiQNMBb-4" value="" style="endArrow=none;html=1;edgeStyle=orthogonalEdgeStyle;curved=1;entryX=-0.004;entryY=0.395;entryDx=0;entryDy=0;entryPerimeter=0;" parent="1" source="TMbOq4nQ9oU4izlfPrIb-5" target="JSX4e2sykX_i9BUhia8Z-2" edge="1">
          <mxGeometry relative="1" as="geometry">
            <mxPoint x="306.5" y="861.02" as="sourcePoint" />
            <mxPoint x="250" y="945.9179591836735" as="targetPoint" />
          </mxGeometry>
        </mxCell>
        <mxCell id="bUYXVA8Obc2C0IiQNMBb-5" value="" style="endArrow=none;html=1;edgeStyle=orthogonalEdgeStyle;curved=1;" parent="1" target="JSX4e2sykX_i9BUhia8Z-2" edge="1">
          <mxGeometry relative="1" as="geometry">
            <mxPoint x="250" y="1007" as="sourcePoint" />
            <mxPoint x="328.692" y="1116.5277551020408" as="targetPoint" />
          </mxGeometry>
        </mxCell>
        <mxCell id="bUYXVA8Obc2C0IiQNMBb-6" value="" style="endArrow=none;html=1;edgeStyle=orthogonalEdgeStyle;curved=1;entryX=0;entryY=0.75;entryDx=0;entryDy=0;" parent="1" source="TMbOq4nQ9oU4izlfPrIb-7" target="JSX4e2sykX_i9BUhia8Z-2" edge="1">
          <mxGeometry relative="1" as="geometry">
            <mxPoint x="270" y="1110.4" as="sourcePoint" />
            <mxPoint x="350" y="1080" as="targetPoint" />
          </mxGeometry>
        </mxCell>
        <mxCell id="bUYXVA8Obc2C0IiQNMBb-7" value="" style="endArrow=none;html=1;edgeStyle=orthogonalEdgeStyle;curved=1;" parent="1" source="JSX4e2sykX_i9BUhia8Z-3" target="TMbOq4nQ9oU4izlfPrIb-8" edge="1">
          <mxGeometry relative="1" as="geometry">
            <mxPoint x="1190" y="958.11" as="sourcePoint" />
            <mxPoint x="1220" y="795.4569387755101" as="targetPoint" />
          </mxGeometry>
        </mxCell>
        <mxCell id="bUYXVA8Obc2C0IiQNMBb-8" value="" style="endArrow=none;html=1;edgeStyle=orthogonalEdgeStyle;curved=1;exitX=1;exitY=0.25;exitDx=0;exitDy=0;" parent="1" source="JSX4e2sykX_i9BUhia8Z-3" target="TMbOq4nQ9oU4izlfPrIb-9" edge="1">
          <mxGeometry relative="1" as="geometry">
            <mxPoint x="1456.5" y="899.9979591836735" as="sourcePoint" />
            <mxPoint x="1320" y="825.1" as="targetPoint" />
          </mxGeometry>
        </mxCell>
        <mxCell id="bUYXVA8Obc2C0IiQNMBb-9" value="" style="endArrow=none;html=1;edgeStyle=orthogonalEdgeStyle;curved=1;exitX=0.983;exitY=0.586;exitDx=0;exitDy=0;exitPerimeter=0;" parent="1" source="TMbOq4nQ9oU4izlfPrIb-15" target="JSX4e2sykX_i9BUhia8Z-4" edge="1">
          <mxGeometry relative="1" as="geometry">
            <mxPoint x="1477.3700000000001" y="1600.0042857142857" as="sourcePoint" />
            <mxPoint x="1440.03" y="1484.29" as="targetPoint" />
          </mxGeometry>
        </mxCell>
        <mxCell id="bUYXVA8Obc2C0IiQNMBb-10" value="" style="endArrow=none;html=1;edgeStyle=orthogonalEdgeStyle;curved=1;exitX=0.375;exitY=0.104;exitDx=0;exitDy=0;exitPerimeter=0;" parent="1" source="TMbOq4nQ9oU4izlfPrIb-12" edge="1">
          <mxGeometry relative="1" as="geometry">
            <mxPoint x="1412.6599999999999" y="1731.6" as="sourcePoint" />
            <mxPoint x="1370" y="1650" as="targetPoint" />
            <Array as="points">
              <mxPoint x="1410" y="1740" />
              <mxPoint x="1410" y="1650" />
            </Array>
          </mxGeometry>
        </mxCell>
        <mxCell id="TMbOq4nQ9oU4izlfPrIb-12" value="&lt;font face=&quot;Helvetica&quot;&gt;likes&lt;/font&gt;" style="ellipse;whiteSpace=wrap;html=1;sketch=1;hachureGap=4;pointerEvents=0;fontFamily=Architects Daughter;fontSource=https%3A%2F%2Ffonts.googleapis.com%2Fcss%3Ffamily%3DArchitects%2BDaughter;fontSize=20;" parent="1" vertex="1">
          <mxGeometry x="1400" y="1729.59" width="160" height="100" as="geometry" />
        </mxCell>
        <mxCell id="bUYXVA8Obc2C0IiQNMBb-12" value="" style="endArrow=none;html=1;edgeStyle=orthogonalEdgeStyle;curved=1;" parent="1" source="TMbOq4nQ9oU4izlfPrIb-11" target="JSX4e2sykX_i9BUhia8Z-4" edge="1">
          <mxGeometry relative="1" as="geometry">
            <mxPoint x="1308.24" y="1809.97" as="sourcePoint" />
            <mxPoint x="1184.7542857142857" y="1639.97" as="targetPoint" />
          </mxGeometry>
        </mxCell>
        <mxCell id="bUYXVA8Obc2C0IiQNMBb-13" value="" style="endArrow=none;html=1;edgeStyle=orthogonalEdgeStyle;curved=1;" parent="1" source="TMbOq4nQ9oU4izlfPrIb-13" target="JSX4e2sykX_i9BUhia8Z-4" edge="1">
          <mxGeometry relative="1" as="geometry">
            <mxPoint x="1071.74" y="1799.59" as="sourcePoint" />
            <mxPoint x="1148.2542857142857" y="1629.59" as="targetPoint" />
          </mxGeometry>
        </mxCell>
        <mxCell id="Ds7MDCIwWu5MuBzmRZJr-1" value="" style="endArrow=none;html=1;rounded=0;entryX=0.021;entryY=0.762;entryDx=0;entryDy=0;entryPerimeter=0;" edge="1" parent="1" source="JSX4e2sykX_i9BUhia8Z-2" target="JSX4e2sykX_i9BUhia8Z-22">
          <mxGeometry relative="1" as="geometry">
            <mxPoint x="660" y="1050" as="sourcePoint" />
            <mxPoint x="750" y="1220" as="targetPoint" />
          </mxGeometry>
        </mxCell>
        <mxCell id="Ds7MDCIwWu5MuBzmRZJr-3" value="" style="endArrow=none;html=1;rounded=0;entryX=0.004;entryY=0.107;entryDx=0;entryDy=0;entryPerimeter=0;exitX=1;exitY=0.5;exitDx=0;exitDy=0;" edge="1" parent="1" source="JSX4e2sykX_i9BUhia8Z-16" target="JSX4e2sykX_i9BUhia8Z-4">
          <mxGeometry relative="1" as="geometry">
            <mxPoint x="938.9746666666665" y="1332.3853061224488" as="sourcePoint" />
            <mxPoint x="1080" y="1500" as="targetPoint" />
          </mxGeometry>
        </mxCell>
        <mxCell id="Ds7MDCIwWu5MuBzmRZJr-5" value="0..n" style="text;strokeColor=none;fillColor=none;spacingLeft=4;spacingRight=4;overflow=hidden;rotatable=0;points=[[0,0.5],[1,0.5]];portConstraint=eastwest;fontSize=18;" vertex="1" parent="1">
          <mxGeometry x="939.9966666666667" y="1309.997551020408" width="72.66666666666667" height="61.224489795918366" as="geometry" />
        </mxCell>
        <mxCell id="JSX4e2sykX_i9BUhia8Z-4" value="&lt;font&gt;&lt;font style=&quot;font-size: 28px&quot;&gt;Memes&lt;/font&gt;&lt;br&gt;&lt;/font&gt;" style="rounded=1;arcSize=10;whiteSpace=wrap;html=1;align=center;" parent="1" vertex="1">
          <mxGeometry x="1083" y="1486.734693877551" width="327" height="163.26530612244898" as="geometry" />
        </mxCell>
        <mxCell id="JSX4e2sykX_i9BUhia8Z-16" value="&lt;font style=&quot;font-size: 18px&quot;&gt;Makes&lt;/font&gt;" style="shape=rhombus;perimeter=rhombusPerimeter;whiteSpace=wrap;html=1;align=center;rotation=30;" parent="1" vertex="1">
          <mxGeometry x="740.0033333333332" y="1229.9985714285715" width="218" height="122.44897959183673" as="geometry" />
        </mxCell>
        <mxCell id="JSX4e2sykX_i9BUhia8Z-5" value="&lt;font style=&quot;font-size: 18px&quot;&gt;Posts&lt;/font&gt;" style="shape=rhombus;perimeter=rhombusPerimeter;whiteSpace=wrap;html=1;align=center;" parent="1" vertex="1">
          <mxGeometry x="384.5" y="1507.142857142857" width="218" height="122.44897959183673" as="geometry" />
        </mxCell>
        <mxCell id="JSX4e2sykX_i9BUhia8Z-2" value="&lt;font style=&quot;font-size: 28px&quot;&gt;Users&lt;/font&gt;" style="rounded=1;arcSize=10;whiteSpace=wrap;html=1;align=center;" parent="1" vertex="1">
          <mxGeometry x="330" y="894.8979591836735" width="327" height="163.26530612244898" as="geometry" />
        </mxCell>
        <mxCell id="TMbOq4nQ9oU4izlfPrIb-15" value="&lt;font face=&quot;Helvetica&quot;&gt;meme&lt;/font&gt;" style="ellipse;whiteSpace=wrap;html=1;sketch=1;hachureGap=4;pointerEvents=0;fontFamily=Architects Daughter;fontSource=https%3A%2F%2Ffonts.googleapis.com%2Fcss%3Ffamily%3DArchitects%2BDaughter;fontSize=20;" parent="1" vertex="1">
          <mxGeometry x="1452.66" y="1600" width="160" height="100" as="geometry" />
        </mxCell>
      </root>
    </mxGraphModel>
  </diagram>
</mxfile>
